<svg width="63" height="52" viewBox="0 0 63 52" fill="none" xmlns="http://www.w3.org/2000/svg">
<path d="M40 46.0536V38.3136C40.075 37.3599 39.9462 36.4012 39.622 35.5012C39.2979 34.6011 38.7859 33.7804 38.12 33.0936C44.4 32.3936 51 30.0136 51 19.0936C50.9995 16.3012 49.9254 13.616 48 11.5936C48.9117 9.1506 48.8472 6.45029 47.82 4.05359C47.82 4.05359 45.46 3.35359 40 7.01359C35.416 5.77123 30.584 5.77123 26 7.01359C20.54 3.35359 18.18 4.05359 18.18 4.05359C17.1528 6.45029 17.0883 9.1506 18 11.5936C16.0603 13.631 14.985 16.3405 15 19.1536C15 29.9936 21.6 32.3736 27.88 33.1536C27.222 33.8335 26.7145 34.6444 26.3906 35.5334C26.0667 36.4225 25.9336 37.3697 26 38.3136V46.0536M26 40.0536C16 43.0536 16 35.0536 12 34.0536L26 40.0536Z" stroke="white" stroke-width="2" stroke-linecap="round" stroke-linejoin="round"/>
</svg>
