<svg width="79" height="48" viewBox="0 0 79 48" fill="none" xmlns="http://www.w3.org/2000/svg">
<path d="M54 14.0536C57.1826 14.0536 60.2348 15.3179 62.4853 17.5683C64.7357 19.8187 66 22.871 66 26.0536V40.0536H58V26.0536C58 24.9927 57.5786 23.9753 56.8284 23.2252C56.0783 22.475 55.0609 22.0536 54 22.0536C52.9391 22.0536 51.9217 22.475 51.1716 23.2252C50.4214 23.9753 50 24.9927 50 26.0536V40.0536H42V26.0536C42 22.871 43.2643 19.8187 45.5147 17.5683C47.7652 15.3179 50.8174 14.0536 54 14.0536V14.0536Z" stroke="white" stroke-width="2" stroke-linecap="round" stroke-linejoin="round"/>
<path d="M34 16.0536H26V40.0536H34V16.0536Z" stroke="white" stroke-width="2" stroke-linecap="round" stroke-linejoin="round"/>
<path d="M30 10.0536C32.2091 10.0536 34 8.26273 34 6.05359C34 3.84445 32.2091 2.05359 30 2.05359C27.7909 2.05359 26 3.84445 26 6.05359C26 8.26273 27.7909 10.0536 30 10.0536Z" stroke="white" stroke-width="2" stroke-linecap="round" stroke-linejoin="round"/>
</svg>
